<svg xmlns="http://www.w3.org/2000/svg" width="1024" height="1024" viewBox="0 0 1024 1024"><path fill="#fff" d="M873.387 0C956.587 0 1024 67.413 1024 150.613v722.773c0 83.2-67.413 150.613-150.613 150.613H150.614c-83.2 0-150.613-67.413-150.613-150.613V150.613C.001 67.413 67.414 0 150.614 0h722.773zm-158.08 617.387c-33.28 0-60.16 26.88-60.16 60.16s26.88 60.331 60.16 60.331 60.16-27.52 60.16-60.8-26.88-60.16-60.16-60.16zM367.36 735.872c51.2 0 87.723-1.792 110.08-5.12 22.443-3.584 41.643-9.472 56.32-17.579 19.2-9.899 33.28-24.064 43.52-42.24s15.36-39.04 15.36-63.147c0-33.28-8.96-59.861-26.88-79.787-17.92-20.48-42.24-31.317-74.24-33.877 28.16-7.68 49.323-19.2 62.123-34.56 13.44-14.677 19.84-35.157 19.84-60.757 0-20.48-4.395-37.76-12.8-53.76-8.96-15.36-21.035-27.52-37.675-37.12-14.72-8.32-31.36-13.44-51.84-17.28-19.797-3.157-55.04-5.12-105.557-5.12H241.238v447.403h126.123zm31.403-178.56c30.08 0 50.56 3.755 61.44 11.179 11.52 7.68 16.64 21.12 16.64 39.68 0 17.28-5.76 29.44-17.92 36.48-11.52 7.68-32.64 10.837-61.44 10.837H354.56v-98.005h44.8zm369.322 30.123V286.208h-104.96v301.227H768zM380.8 387.413c30.293 0 50.56 3.413 61.099 10.24 10.453 6.827 15.659 18.56 15.659 35.413 0 16.213-5.547 27.563-16.64 34.304-11.307 6.571-31.872 9.899-61.952 9.899h-24.32v-89.856h26.24z"/></svg>