<svg class="logo-sharesl" xmlns="http://www.w3.org/2000/svg" viewBox="0 0 840 232"><g class="shape"><path class="cls-1" d="M103 0l25.28 26.26L76.25 76l52.44 51.63 24.25-24.37L179.15 130c-8.39 8.15-17.21 16.49-25.77 25.08Q115.11 193.45 77 232h-1l-25.06-26.3L103 155.89 50.25 104l-25.37 26c-1.91-2.58-3.17-4.82-4.92-6.56-6.57-6.56-13.3-13-20-19.41v-2a34.87 34.87 0 0 0 3.81-2.92q28.67-28.77 57.28-57.6Q81.59 20.79 102 0z"/><path class="cls-2" d="M840 186l-50.41-.25h-6.21V46.54h21.34V166H840z"/><path class="cls-3" d="M539.1 127.76v57.7h-21.9V46.26h10.86c9.65.15 19.35-.21 28.94.63 16.85 1.48 24.65 9 26.39 25.68a117.86 117.86 0 0 1-.26 23.89c-1.06 10.51-4.55 15.15-13.9 21.11 12.44 6.07 14.49 17.26 14.62 29.26.13 12.78 0 25.55 0 38.62h-22.26c-.09-1.84-.25-3.6-.25-5.37v-32.47a62.77 62.77 0 0 0-.32-7c-1-8.57-5.51-12.64-14.17-12.86-2.35-.04-4.67.01-7.75.01zm.3-23.61c8.41.19 16-.69 20-8.42 3.46-6.71 3.45-14-1-20.36s-11.52-6.9-18.91-6.79zM320.11 185.38V46.65h21.29v57.15h24.46V46.58h21.62v138.85h-21.42V128h-24.31v57.35zM434.75 46.33H470l16.3 139.12h-17.82l-4.11-34.3h-24l-4.08 34.29h-17.81zm14.07 31.14L443 127.39h18.7l-5.82-49.92z"/><path class="cls-4" d="M614.65 46.49h58v21.1h-36.22v36.48H665v23.57h-28.68v38.21h36.45v19.58h-58.12z"/><path class="cls-5" d="M759.9 84.72h-19.84c-.35-3.72-.48-7.22-1.05-10.64-.88-5.3-4.29-8-9.73-8.12-5.68-.12-9 2.21-10.34 7.4-2 7.77-.58 15.13 4.33 21.25a160.8 160.8 0 0 0 15.2 15.8c9.54 9 19 18.29 20.7 32a68.39 68.39 0 0 1-1.07 22.67c-2.66 12-11.24 18.62-23.38 19.91a55.33 55.33 0 0 1-15.85-.39c-13.58-2.6-21.38-12.6-22.65-28.48-.33-4.12 0-8.29 0-12.78h20.56c0 4.16-.27 8.31.06 12.41.56 6.87 4.1 10.1 10.54 10.18s10-3 11-9.78a24 24 0 0 0-5-19.25c-3.76-4.64-8.16-8.75-12.31-13.06-4.85-5-10.15-9.68-14.55-15.07-10.57-13-12-27.84-7.4-43.39 3.2-10.81 11-17 22.09-18.28a54.7 54.7 0 0 1 16.83.41c12.84 2.54 20.69 12.56 21.94 26.92.16 3.29-.08 6.57-.08 10.29zM269.26 84.63c-.4-3.77-.5-7.43-1.22-11-1.12-5.49-4.66-7.9-10.53-7.71-5.41.17-8.54 2.88-9.6 8.3-1.49 7.62-.05 14.72 4.75 20.74 3.72 4.66 8.12 8.78 12.3 13.07 4.52 4.65 9.4 9 13.65 13.87 10.58 12.16 12.7 26.45 9.29 41.71-2.74 12.3-11.41 20.07-24 21.33a55.37 55.37 0 0 1-16.33-.52c-13.44-2.74-20.46-12-22.17-28.31-.43-4.1-.06-8.28-.06-13.16h20.44c0 4.13-.14 7.92 0 11.69.32 7.25 3.66 10.87 10.1 11.24 6.78.38 10.73-2.91 11.69-10.17a23.51 23.51 0 0 0-5.1-18.71 194.22 194.22 0 0 0-15.3-15.72c-9.57-9-18.45-18.48-20.66-32.13-1.32-8.15-1.08-16.3 1.69-24.15 3.66-10.38 11.1-16.56 22-17.87a56.5 56.5 0 0 1 16.35.27c12.58 2.22 20.68 11.73 22.3 25.49.44 3.76.07 7.62.07 11.78z"/></g></svg>